<!-- <svg xmlns="http://www.w3.org/2000/svg" fill="none" viewBox="0 0 24 24" stroke-width="1.5" stroke="currentColor" class="size-6">
  <path stroke-linecap="round" stroke-linejoin="round" d="M8.625 12a.375.375 0 1 1-.75 0 .375.375 0 0 1 .75 0Zm0 0H8.25m4.125 0a.375.375 0 1 1-.75 0 .375.375 0 0 1 .75 0Zm0 0H12m4.125 0a.375.375 0 1 1-.75 0 .375.375 0 0 1 .75 0Zm0 0h-.375M21 12a9 9 0 1 1-18 0 9 9 0 0 1 18 0Z" />
</svg> -->
<svg xmlns="http://www.w3.org/2000/svg" fill="none" viewBox="0 0 24 24"
                                stroke-width="1.5" stroke="currentColor" class="size-6">
                                <path stroke-linecap="round" stroke-linejoin="round"
                                    d="M6.75 12a.75.75 0 1 1-1.5 0 .75.75 0 0 1 1.5 0ZM12.75 12a.75.75 0 1 1-1.5 0 .75.75 0 0 1 1.5 0ZM18.75 12a.75.75 0 1 1-1.5 0 .75.75 0 0 1 1.5 0Z" />
                            </svg>